<?xml version="1.0" standalone="no"?>
<!DOCTYPE svg PUBLIC "-//W3C//DTD SVG 20010904//EN"
 "http://www.w3.org/TR/2001/REC-SVG-20010904/DTD/svg10.dtd">
<svg version="1.0" xmlns="http://www.w3.org/2000/svg"
 width="512.000000pt" height="512.000000pt" viewBox="0 0 512.000000 512.000000"
 preserveAspectRatio="xMidYMid meet">
<metadata>
Created by potrace 1.11, written by Peter Selinger 2001-2013
</metadata>
<g transform="translate(0.000000,512.000000) scale(0.100000,-0.100000)"
fill="#000000" stroke="none">
<path d="M2190 4975 c-647 -98 -1210 -439 -1616 -981 -235 -313 -395 -714
-449 -1127 -19 -151 -20 -443 0 -610 37 -313 156 -674 306 -925 391 -655 1018
-1083 1759 -1199 141 -22 568 -25 695 -4 396 63 714 183 1020 387 393 260 739
678 906 1094 45 112 100 284 125 390 83 352 82 760 -1 1110 -111 463 -319 835
-660 1176 -209 210 -375 329 -640 460 -247 122 -523 207 -760 234 -125 14
-580 11 -685 -5z m-407 -943 c53 -54 97 -102 97 -105 0 -3 -7 -13 -16 -21 -20
-21 -131 -22 -179 -2 -46 19 -53 38 -56 140 -2 66 0 89 11 96 21 13 35 2 143
-108z m427 -79 c53 -52 56 -77 9 -81 -64 -5 -126 73 -83 105 26 19 31 17 74
-24z m-1019 -192 c27 -28 29 -34 29 -111 0 -87 -10 -120 -38 -120 -22 0 -222
200 -222 223 0 26 34 36 123 36 74 1 80 -1 108 -28z m596 -93 c57 -57 103
-108 103 -114 0 -24 -29 -33 -111 -36 -126 -3 -149 19 -149 143 0 76 11 109
38 109 9 0 63 -46 119 -102z m722 -15 c114 -116 126 -141 126 -267 0 -75 -3
-100 -14 -104 -20 -7 -188 169 -210 220 -25 56 -39 202 -21 223 7 8 17 15 23
15 6 0 49 -39 96 -87z m-212 -208 c153 -153 233 -241 231 -252 -5 -26 -39 -31
-228 -32 -202 -1 -243 7 -270 52 -18 29 -20 52 -20 234 0 170 2 204 16 217 8
9 20 16 26 16 5 0 115 -106 245 -235z m-403 -36 c37 -17 59 -72 53 -132 -3
-41 -11 -56 -36 -79 -31 -28 -32 -28 -168 -28 -169 0 -188 8 -302 122 -78 79
-96 110 -68 121 26 11 496 7 521 -4z m1517 -346 c66 -32 101 -63 318 -277 243
-241 344 -354 382 -427 31 -61 40 -169 29 -351 -12 -190 -25 -279 -48 -330
-10 -21 -146 -167 -327 -351 l-310 -315 -73 -22 c-67 -21 -96 -23 -330 -24
-256 -1 -257 -1 -297 23 -90 55 -162 121 -420 382 -217 221 -276 286 -300 334
l-30 60 0 245 c1 229 2 249 24 313 12 37 40 93 61 125 21 31 155 172 297 313
339 336 339 335 729 338 l221 1 74 -37z m-894 1 c4 -12 -60 -82 -235 -257
-207 -206 -243 -238 -257 -227 -13 10 -15 45 -15 217 0 228 6 255 65 272 16 5
121 10 233 10 178 1 203 -1 209 -15z m-622 -20 c25 -27 25 -28 25 -241 0 -129
-4 -222 -10 -234 -23 -42 -49 -23 -282 209 -235 236 -254 262 -205 282 12 5
118 9 235 9 l213 1 24 -26z m-703 -27 c24 -31 27 -52 14 -79 -19 -39 -53 -35
-97 12 -21 22 -39 45 -39 50 0 6 9 19 21 31 26 26 76 20 101 -14z m367 -337
c25 -12 85 -61 145 -120 81 -81 98 -102 86 -110 -35 -23 -204 -4 -270 30 -41
21 -180 161 -180 182 0 29 24 38 100 38 53 0 88 -6 119 -20z"/>
<path d="M3000 2753 c-159 -156 -208 -198 -229 -198 l-26 0 -5 155 c-6 173 -5
171 -71 118 l-39 -31 0 -151 c0 -83 -5 -158 -10 -166 -7 -12 -40 -16 -160 -18
l-150 -4 -35 -42 c-19 -24 -35 -46 -35 -50 0 -3 60 -6 134 -6 142 0 186 -9
186 -37 0 -9 -90 -107 -200 -218 l-200 -201 0 -52 c0 -29 3 -52 7 -52 4 0 104
100 223 222 139 143 220 219 228 214 9 -5 12 -69 12 -244 -1 -196 -3 -240 -16
-257 -14 -19 -28 -20 -190 -22 -97 -1 -178 -4 -180 -6 -2 -2 12 -25 31 -50
l36 -47 139 0 c188 0 180 9 180 -194 l0 -154 49 -35 c27 -20 52 -33 55 -30 3
4 6 85 6 180 0 242 -13 233 315 233 208 0 235 -3 235 -24 0 -7 -99 -111 -220
-231 -120 -120 -217 -222 -214 -227 3 -4 26 -8 52 -8 l46 0 198 197 c169 168
199 194 213 183 12 -10 15 -40 15 -161 0 -82 3 -149 6 -149 4 0 27 16 50 36
l44 35 0 135 c0 206 1 207 208 214 l155 5 32 45 c18 25 31 48 29 51 -2 3 -49
4 -106 2 -126 -5 -191 5 -196 30 -3 13 57 79 193 214 l196 195 -7 47 c-4 25
-8 48 -11 50 -2 3 -102 -93 -221 -212 -120 -119 -226 -217 -235 -217 -31 0
-37 36 -37 242 0 298 -1 297 268 297 89 1 162 3 162 6 0 3 -15 25 -32 49 l-33
44 -157 3 c-149 4 -158 5 -182 28 -26 24 -26 27 -26 163 0 150 2 143 -62 192
l-38 28 0 -175 c0 -202 -5 -222 -59 -231 -47 -8 -399 -8 -428 0 -26 7 -30 26
-9 46 180 175 427 421 424 423 -2 1 -26 5 -55 9 l-51 6 -202 -197z m258 -399
c50 -14 27 -44 -222 -293 -199 -199 -248 -242 -267 -239 l-24 3 -3 229 -2 230
27 28 c15 16 41 33 58 37 34 10 398 14 433 5z m111 -128 c9 -10 11 -78 9 -240
-4 -295 18 -270 -246 -273 -220 -2 -258 2 -267 25 -4 11 66 87 237 259 133
134 245 243 249 243 4 0 12 -6 18 -14z"/>
</g>
</svg>
